<svg width="456" height="692" viewBox="0 0 456 692" fill="none" xmlns="http://www.w3.org/2000/svg">
<path fill-rule="evenodd" clip-rule="evenodd" d="M361.689 0.0301383C440.442 -0.620465 522.911 9.048 585.848 49.9756C647.058 89.7801 671.989 156.448 697.995 218.728C722.17 276.621 736.122 336.001 730.915 397.386C725.415 462.235 717.667 532.12 667.317 580.426C617.234 628.475 535.909 634.838 464.194 653.276C392.213 671.783 320.56 702.481 247.243 688.429C172.033 674.014 105.394 631.037 61.7731 576.147C20.3024 523.963 22.6424 457.582 13.8435 394.729C5.25112 333.351 -10.8843 271.902 10.9393 213.025C34.3182 149.952 77.5721 91.7282 140.266 53.6567C204.284 14.7817 283.459 0.676421 361.689 0.0301383Z" fill="#EEF4FB"/>
</svg>
