<svg width="64" height="199" viewBox="0 0 64 199" fill="none" xmlns="http://www.w3.org/2000/svg">
<path fill-rule="evenodd" clip-rule="evenodd" d="M-18.9297 0.236519C-0.887772 -1.89365 15.7343 10.7554 29.5826 22.4701C42.288 33.2181 49.8938 48.1297 55.9657 63.5929C61.7592 78.347 63.9611 93.6651 63.7592 109.506C63.5314 127.369 66.8045 148.035 54.721 161.235C42.6401 174.432 20.6949 168.826 3.85164 174.949C-14.6282 181.666 -29.1923 200.901 -48.7557 198.847C-68.6372 196.76 -85.7111 181.333 -96.2874 164.434C-106.248 148.519 -102.888 128.6 -104.419 109.908C-105.846 92.4833 -113.639 73.7226 -104.963 58.5262C-96.3518 43.444 -74.9771 42.873 -60.5745 33.1148C-45.6256 22.9866 -36.8831 2.35624 -18.9297 0.236519Z" fill="#5C79E2"/>
</svg>
