<svg width="416" height="183" viewBox="0 0 416 183" fill="none" xmlns="http://www.w3.org/2000/svg">
<path fill-rule="evenodd" clip-rule="evenodd" d="M348.184 16.4971C383.435 39.4675 398.995 83.4404 408.57 124.425C418.247 165.843 418.237 209.76 402.584 249.344C387.09 288.525 361.43 328.608 321.978 343.397C283.871 357.682 244.539 327.797 204.068 323.759C172.49 320.609 141.433 330.564 110.791 322.33C73.6932 312.362 29.384 304.722 9.94958 271.599C-9.4822 238.48 6.24883 196.23 14.8229 158.765C22.3324 125.952 30.0132 89.936 56.3314 68.9287C81.3354 48.9704 118.628 62.5806 148.761 51.8548C178.166 41.3881 198.327 12.8962 229.054 7.44837C269.091 0.349732 314.147 -5.68238 348.184 16.4971Z" fill="#4361D0"/>
</svg>
