<svg width="322" height="666" viewBox="0 0 322 666" fill="none" xmlns="http://www.w3.org/2000/svg">
<path fill-rule="evenodd" clip-rule="evenodd" d="M226.042 659.016C163.515 636.562 146.089 557.983 105.649 505.273C69.2655 457.851 3.98114 424.376 0.250214 364.722C-3.48782 304.955 66.5714 267.921 87.2897 211.735C109.741 150.849 76.8194 67.7125 125.567 24.8768C173.345 -17.1074 248.982 7.12478 312.203 14.0981C368.232 20.2783 418.27 41.7923 470.527 62.9265C533.431 88.3663 616.247 91.5279 649.67 150.578C682.966 209.405 647.11 282.565 632.155 348.486C618.657 407.987 605.01 467.886 566.879 515.517C528.397 563.587 473.854 593.225 417.103 617.118C355.769 642.941 288.674 681.508 226.042 659.016Z" fill="#EEF4FB"/>
</svg>
