<svg width="274" height="396" viewBox="0 0 274 396" fill="none" xmlns="http://www.w3.org/2000/svg">
<path fill-rule="evenodd" clip-rule="evenodd" d="M127.162 14.2623C78.4431 34.481 26.3232 65.575 7.03231 110.865C-11.9472 155.424 13.2164 198.512 31.9378 237.823C46.7736 268.975 77.7993 286.604 102.445 311.213C130.6 339.328 144.602 382.262 186.444 392.102C231.605 402.723 285.057 389.524 329.426 364.593C374.15 339.463 409.718 299.717 428.806 255.92C446.855 214.508 441.762 171.698 430.645 132.349C420.481 96.3746 399.008 66.063 368.718 43.2394C339.086 20.911 301.879 9.93651 261.811 5.12994C217.471 -0.189128 171.347 -4.07477 127.162 14.2623Z" fill="#37A5F0"/>
</svg>
