<svg width="199" height="255" viewBox="0 0 199 255" fill="none" xmlns="http://www.w3.org/2000/svg">
<path fill-rule="evenodd" clip-rule="evenodd" d="M105.436 253.955C69.9374 250.178 30.5938 238.909 11.1538 208.937C-7.97248 179.45 2.63305 140.516 9.47589 106.01C14.8985 78.665 33.1005 57.7727 46.0279 33.0763C60.7965 4.86273 63.96 -31.2812 90.5194 -48.8146C119.186 -67.7394 156.836 -70.4565 190.107 -62.0388C223.643 -53.5538 253.168 -31.7137 272.256 -2.83412C290.306 24.4734 293.082 58.3888 291.33 91.1031C289.728 121.012 279.745 149.304 262.785 173.988C246.194 198.136 222.898 215.426 196.797 228.691C167.914 243.37 137.632 257.381 105.436 253.955Z" fill="#37A5F0"/>
</svg>
