<svg width="167" height="209" viewBox="0 0 167 209" fill="none" xmlns="http://www.w3.org/2000/svg">
<path fill-rule="evenodd" clip-rule="evenodd" d="M67.5192 7.52048C41.8982 18.1534 14.4887 34.5055 4.34376 58.3231C-5.63746 81.7563 7.5959 104.416 17.4414 125.09C25.2434 141.472 41.5596 150.743 54.5206 163.685C69.3274 178.47 76.6909 201.049 98.695 206.224C122.445 211.809 150.555 204.868 173.888 191.757C197.408 178.541 216.113 157.639 226.152 134.607C235.643 112.828 232.965 90.3147 227.119 69.6215C221.774 50.7027 210.481 34.7621 194.552 22.7593C178.969 11.017 159.402 5.24555 138.33 2.71782C115.012 -0.0794429 90.7558 -2.12288 67.5192 7.52048Z" fill="#37A5F0"/>
</svg>
