<svg width="181" height="358" viewBox="0 0 181 358" fill="none" xmlns="http://www.w3.org/2000/svg">
<path fill-rule="evenodd" clip-rule="evenodd" d="M121.798 354.349C88.1947 342.282 78.8301 300.052 57.0966 271.725C37.5438 246.24 2.45897 228.25 0.453904 196.191C-1.55498 164.071 36.0959 144.168 47.2303 113.973C59.2961 81.2521 41.6033 36.5733 67.801 13.5527C93.4778 -9.01017 134.126 4.01256 168.102 7.76013C198.213 11.0815 225.104 22.6434 253.188 34.0013C286.993 47.673 331.5 49.3721 349.462 81.1067C367.356 112.721 348.086 152.038 340.049 187.465C332.795 219.442 325.461 251.633 304.969 277.23C284.288 303.064 254.976 318.992 224.477 331.832C191.515 345.71 155.457 366.436 121.798 354.349Z" fill="#EEF4FB"/>
</svg>
