<svg width="33" height="122" viewBox="0 0 33 122" fill="none" xmlns="http://www.w3.org/2000/svg">
<path fill-rule="evenodd" clip-rule="evenodd" d="M121.941 6.401C134.243 14.4174 139.674 29.7634 143.015 44.0666C146.392 58.5209 146.389 73.8473 140.926 87.6616C135.519 101.336 126.564 115.324 112.796 120.485C99.4967 125.47 85.7705 115.041 71.6465 113.632C60.6261 112.532 49.7875 116.006 39.094 113.133C26.1473 109.654 10.6839 106.988 3.9015 95.4283C-2.87994 83.8702 2.60999 69.1256 5.60225 56.0507C8.22295 44.5993 10.9035 32.0303 20.0882 24.699C28.8143 17.7338 41.829 22.4836 52.345 18.7404C62.607 15.0877 69.643 5.14435 80.3663 3.24311C94.3388 0.76577 110.063 -1.33937 121.941 6.401Z" fill="#4361D0"/>
</svg>
