<svg width="106" height="272" viewBox="0 0 106 272" fill="none" xmlns="http://www.w3.org/2000/svg">
<path fill-rule="evenodd" clip-rule="evenodd" d="M-7.12953 0.323282C17.4826 -2.58831 40.1577 14.7008 59.0491 30.713C76.3814 45.4036 86.7569 65.7853 95.04 86.921C102.943 107.087 105.947 128.025 105.671 149.677C105.361 174.092 109.826 202.339 93.342 220.381C76.8616 238.419 46.9249 230.758 23.9479 239.126C-1.26152 248.307 -21.1294 274.599 -47.817 271.791C-74.9386 268.938 -98.2301 247.853 -112.658 224.755C-126.246 203.001 -121.662 175.775 -123.751 150.225C-125.698 126.409 -136.329 100.767 -124.493 79.9956C-112.746 59.3808 -83.5873 58.6002 -63.9397 45.2625C-43.547 31.4188 -31.6208 3.22058 -7.12953 0.323282Z" fill="#5C79E2"/>
</svg>
