<svg width="139" height="153" viewBox="0 0 139 153" fill="none" xmlns="http://www.w3.org/2000/svg">
<path fill-rule="evenodd" clip-rule="evenodd" d="M186.759 111.476C172.246 131.398 151.925 151.033 127.293 152.31C103.059 153.567 83.4402 133.785 65.1697 117.781C50.6912 105.099 44.4826 87.0026 34.1786 70.7472C22.407 52.1767 1.88735 37.8075 0.572245 15.8738C-0.847223 -7.80036 10.5255 -31.2505 27.0444 -48.2383C43.6954 -65.3619 66.9468 -75.476 90.8047 -76.9201C113.364 -78.2856 134.602 -68.2372 153.558 -55.8959C170.888 -44.6128 184.359 -28.8768 193.264 -10.2148C201.975 8.04228 204.271 27.9409 203.192 48.1264C201.998 70.4642 199.922 93.4082 186.759 111.476Z" fill="#37A5F0"/>
</svg>
