<svg width="214" height="354" viewBox="0 0 214 354" fill="none" xmlns="http://www.w3.org/2000/svg">
<path fill-rule="evenodd" clip-rule="evenodd" d="M184.797 0.0153985C225.035 -0.317013 267.17 4.62288 299.327 25.534C330.601 45.8712 343.339 79.9336 356.626 111.754C368.977 141.334 376.106 171.672 373.446 203.036C370.635 236.169 366.677 271.875 340.951 296.556C315.362 321.106 273.811 324.357 237.17 333.778C200.393 343.233 163.784 358.918 126.324 351.738C87.8969 344.373 53.8487 322.415 31.5617 294.37C10.3731 267.708 11.5687 233.792 7.07303 201.678C2.68295 170.318 -5.56111 138.923 5.5892 108.841C17.5342 76.615 39.6339 46.8666 71.6662 27.4147C104.374 7.55242 144.827 0.345603 184.797 0.0153985Z" fill="#EEF4FB"/>
</svg>
