<svg width="434" height="494" viewBox="0 0 434 494" fill="none" xmlns="http://www.w3.org/2000/svg">
<path fill-rule="evenodd" clip-rule="evenodd" d="M495.579 22.9577C545.768 55.6624 567.922 118.27 581.555 176.623C595.332 235.593 595.319 298.121 573.032 354.48C550.971 410.265 514.438 467.334 458.267 488.391C404.011 508.729 348.011 466.179 290.39 460.431C245.429 455.946 201.21 470.119 157.584 458.396C104.765 444.203 41.6781 433.326 14.0078 386.165C-13.6587 339.011 8.73877 278.858 20.9464 225.515C31.6382 178.797 42.5739 127.518 80.0452 97.6086C115.645 69.1925 168.742 88.5704 211.644 73.2992C253.511 58.397 282.216 17.8309 325.964 10.0744C382.968 -0.0325294 447.117 -8.62092 495.579 22.9577Z" fill="#4361D0"/>
</svg>
