<svg width="317" height="309" viewBox="0 0 317 309" fill="none" xmlns="http://www.w3.org/2000/svg">
<path fill-rule="evenodd" clip-rule="evenodd" d="M233.54 6.88069C266.852 19.717 301.938 40.7849 312.959 74.7665C323.801 108.2 303.48 143.061 287.94 174.621C275.624 199.631 252.635 215.1 233.757 235.609C212.189 259.039 199.778 293.133 169.586 303.194C136.998 314.055 99.9279 306.935 69.9696 290.193C39.7718 273.317 16.906 244.58 5.94231 211.744C-4.42459 180.695 1.67189 147.217 11.8315 116.071C21.1199 87.5955 38.0851 62.8513 60.8554 43.398C83.1315 24.3669 110.109 13.6953 138.753 7.638C170.451 0.934816 203.328 -4.76108 233.54 6.88069Z" fill="#37A5F0"/>
</svg>
