<svg width="648" height="692" viewBox="0 0 648 692" fill="none" xmlns="http://www.w3.org/2000/svg">
<path fill-rule="evenodd" clip-rule="evenodd" d="M277.689 0.0301383C356.442 -0.620465 438.911 9.048 501.848 49.9756C563.058 89.7801 587.989 156.448 613.995 218.728C638.17 276.621 652.122 336.001 646.915 397.386C641.415 462.235 633.667 532.12 583.317 580.426C533.234 628.475 451.909 634.838 380.194 653.276C308.213 671.783 236.56 702.481 163.243 688.429C88.0334 674.014 21.3936 631.037 -22.2269 576.147C-63.6976 523.963 -61.3576 457.582 -70.1565 394.729C-78.7489 333.351 -94.8843 271.902 -73.0607 213.025C-49.6818 149.952 -6.42786 91.7282 56.2664 53.6567C120.284 14.7817 199.459 0.676421 277.689 0.0301383Z" fill="#EEF4FB"/>
</svg>
