<svg width="513" height="249" viewBox="0 0 513 249" fill="none" xmlns="http://www.w3.org/2000/svg">
<path fill-rule="evenodd" clip-rule="evenodd" d="M365.19 15.8796C421.799 39.3725 482.359 75.5018 504.774 128.126C526.827 179.9 497.588 229.966 475.835 275.644C458.597 311.841 422.547 332.324 393.91 360.918C361.195 393.586 344.926 443.473 296.309 454.907C243.834 467.247 181.727 451.911 130.172 422.943C78.2059 393.743 36.8778 347.56 14.6987 296.671C-6.27298 248.552 -0.355499 198.81 12.5617 153.089C24.3713 111.289 49.3223 76.0688 84.5169 49.5491C118.948 23.605 162.18 10.8533 208.737 5.26833C260.257 -0.912107 313.85 -5.42699 365.19 15.8796Z" fill="#37A5F0"/>
</svg>
