<svg width="233" height="243" viewBox="0 0 233 243" fill="none" xmlns="http://www.w3.org/2000/svg">
<path fill-rule="evenodd" clip-rule="evenodd" d="M228.903 274.199C215.757 304.783 180.436 319.56 149.14 330.792C120.427 341.097 89.7726 339.491 59.6472 334.946C30.9033 330.608 4.55412 320.054 -20.4239 305.206C-48.5884 288.464 -84.414 274.705 -94.3104 243.425C-104.205 212.151 -75.195 182.467 -69.4884 150.124C-63.2273 114.639 -80.4383 73.8864 -59.2519 44.7256C-37.7209 15.0904 2.42585 2.14357 38.9588 0.858013C73.3653 -0.352713 101.926 23.2467 133.021 37.9597C162.006 51.6742 198.946 56.5132 215.136 84.2179C231.204 111.714 212.527 146.157 214.832 177.961C217.224 210.972 241.985 243.765 228.903 274.199Z" fill="#5C79E2"/>
</svg>
